<svg width="16" height="16" viewBox="0 0 16 16" fill="none" xmlns="http://www.w3.org/2000/svg">
<path d="M15.5 8C15.5 12.1421 12.1421 15.5 8 15.5C3.85786 15.5 0.5 12.1421 0.5 8C0.5 3.85786 3.85786 0.5 8 0.5C12.1421 0.5 15.5 3.85786 15.5 8Z" stroke="#FF5959" stroke-linecap="round" stroke-linejoin="round"/>
<path fill-rule="evenodd" clip-rule="evenodd" d="M7.99995 4C8.44178 4 8.79995 4.35817 8.79995 4.8V8C8.79995 8.44183 8.44178 8.8 7.99995 8.8C7.55812 8.8 7.19995 8.44183 7.19995 8V4.8C7.19995 4.35817 7.55812 4 7.99995 4Z" fill="#FF5959"/>
<path fill-rule="evenodd" clip-rule="evenodd" d="M7.19995 11.1999C7.19995 10.7581 7.55812 10.3999 7.99995 10.3999H8.00795C8.44978 10.3999 8.80795 10.7581 8.80795 11.1999C8.80795 11.6417 8.44978 11.9999 8.00795 11.9999H7.99995C7.55812 11.9999 7.19995 11.6417 7.19995 11.1999Z" fill="#FF5959"/>
</svg>
